<mxfile host="app.diagrams.net" modified="2024-03-26T16:38:42.382Z" agent="Mozilla/5.0 (Windows NT 10.0; Win64; x64) AppleWebKit/537.36 (KHTML, like Gecko) Chrome/123.0.0.0 Safari/537.36" version="24.2.0" etag="bgbnS4l4fdOUV7Qi-gBT" type="github">
  <diagram name="Страница — 1" id="gaSgeP10a6fByNg6cigm">
    <mxGraphModel>
      <root>
        <mxCell id="0" />
        <mxCell id="1" parent="0" />
      </root>
    </mxGraphModel>
  </diagram>
</mxfile>
